<svg width="115" height="131" viewBox="0 0 115 131" fill="none" xmlns="http://www.w3.org/2000/svg">
<path d="M1.08594 1C38.4182 1 75.7537 1 113.086 1C112.999 2.12872 112.922 3.26081 112.825 4.38953C112.381 9.53111 111.937 14.6727 111.482 19.8143C111.021 25.0367 110.543 30.2592 110.082 35.485C109.628 40.667 109.197 45.8524 108.739 51.0344C108.278 56.2568 107.793 61.4793 107.332 66.7051C106.878 71.8871 106.453 77.0725 105.996 82.2545C105.454 88.3968 104.88 94.539 104.338 100.681C103.884 105.863 103.45 111.049 103.022 116.234C102.962 116.945 102.698 117.289 101.949 117.498C87.2711 121.595 72.6029 125.725 57.9413 129.87C57.3532 130.035 56.8487 130.048 56.254 129.88C41.6993 125.756 27.1446 121.632 12.5699 117.585C11.3637 117.252 11.1499 116.679 11.0764 115.607C10.8559 112.302 10.5451 109 10.2578 105.698C9.78999 100.348 9.30885 95.0006 8.84107 89.6501C8.39334 84.5524 7.95563 79.4512 7.50789 74.3534C7.04011 69.0468 6.56231 63.7401 6.09453 58.4334C5.64345 53.2918 5.2024 48.1502 4.75133 43.012C4.28689 37.7054 3.81243 32.3987 3.34131 27.0886C2.95706 22.786 2.56279 18.4834 2.1919 14.1774C1.81434 9.78044 1.45348 5.39022 1.08594 1ZM57.1227 24.7571C46.2067 24.7571 35.2907 24.7571 24.3747 24.7571C23.7065 24.7571 23.0415 24.7806 22.3766 24.7503C21.8287 24.7267 21.675 24.9087 21.7184 25.4815C22.0057 29.2046 22.3198 32.931 22.4668 36.6642C22.517 37.9513 22.9179 38.1804 24.1108 38.1771C41.5256 38.1063 58.9403 38.0962 76.3585 38.0389C77.2573 38.0389 77.3341 38.3455 77.2707 39.1171C76.9265 43.2142 76.6024 47.3147 76.3585 51.4218C76.305 52.3417 76.0812 52.6247 75.1456 52.6348C58.5661 52.7932 41.9867 53.0088 25.4072 53.1335C24.0439 53.1436 23.9771 53.6321 24.1041 54.7036C24.5384 58.3694 24.9561 62.0352 25.2869 65.7111C25.3604 66.5299 25.6277 66.6276 26.3294 66.6242C32.454 66.5872 38.5785 66.577 44.7031 66.5703C54.453 66.5602 64.2029 66.5501 73.9528 66.5602C74.4105 66.5602 75.1523 66.1694 75.0186 67.3116C74.327 73.2651 73.6921 79.2288 73.074 85.1925C72.9905 86.0012 72.7131 86.4358 71.9012 86.6514C67.2602 87.8846 62.6291 89.165 57.9948 90.4251C57.4301 90.5801 56.8687 90.6171 56.2874 90.4588C51.6129 89.1717 46.9351 87.8846 42.2473 86.6413C41.4788 86.4392 41.1881 86.0686 41.1313 85.2869C40.894 82.022 40.59 78.7639 40.3494 75.5024C40.2993 74.7982 40.1389 74.4613 39.337 74.4714C35.2139 74.5084 31.0874 74.5051 26.9642 74.4714C26.2525 74.4646 26.042 74.6365 26.1122 75.3878C26.7804 82.4027 27.4253 89.421 28.0368 96.4427C28.0936 97.0862 28.274 97.3794 28.9022 97.5546C38.0439 100.075 47.179 102.615 56.3141 105.162C56.7585 105.287 57.1494 105.385 57.6372 105.247C66.8559 102.662 76.0812 100.102 85.3098 97.5512C85.8578 97.3996 86.0983 97.1772 86.1451 96.5404C86.3556 93.5687 86.6396 90.6037 86.9103 87.6387C87.5485 80.6204 88.2067 73.6021 88.8315 66.5838C89.3761 60.4415 89.874 54.2925 90.4119 48.1502C91.0568 40.7546 91.695 33.3556 92.4067 25.9633C92.5103 24.8851 92.2029 24.7368 91.2539 24.7368C79.8802 24.7638 68.5065 24.7537 57.1294 24.7537L57.1227 24.7571Z" fill="#0080FF" stroke="#1D1D1B" stroke-width="2" stroke-miterlimit="10"/>
</svg>
