<svg xmlns="http://www.w3.org/2000/svg" viewBox="0 0 48 48" role="img" aria-label=">ACA;C38">
  <rect width="48" height="48" rx="10" fill="#fff"/>
  <path fill="#EF3E58" d="M24 8c-4.2 0-7.6 3.4-7.6 7.6 0 3.1 1.9 5.8 4.6 7 2.7-1.2 4.6-3.9 4.6-7C25.6 11.4 22.2 8 24 8z"/>
  <path fill="#0066B3" d="M12.8 28.4c-1.8 2.4-1.4 5.8 1 7.6 2.4 1.8 5.8 1.4 7.6-1 1.2-1.6 1.4-3.6.8-5.4-2.4.4-4.9-.2-6.9-1.8-1.2 1.2-2 2.4-2.5 3.6z"/>
  <path fill="#0066B3" d="M35.2 28.4c-.5-1.2-1.3-2.4-2.5-3.6-2 1.6-4.5 2.2-6.9 1.8-.6 1.8-.4 3.8.8 5.4 1.8 2.4 5.2 2.8 7.6 1 2.4-1.8 2.8-5.2 1-7.6z"/>
  <path fill="#0066B3" d="M24 22.8c-3.8 0-7.2 1.8-9.4 4.6 1.8 3.2 5.2 5.2 9.4 5.2s7.6-2 9.4-5.2c-2.2-2.8-5.6-4.6-9.4-4.6z"/>
</svg>
